<?xml version="1.0" encoding="UTF-8"?>
<svg xmlns="http://www.w3.org/2000/svg" xmlns:xlink="http://www.w3.org/1999/xlink" width="300pt" height="299.999988pt" viewBox="0 0 300 299.999988" version="1.2">
<defs>
<clipPath id="clip1">
  <path d="M 35.496094 88.632812 L 263.988281 88.632812 L 263.988281 228 L 35.496094 228 Z M 35.496094 88.632812 "/>
</clipPath>
</defs>
<g id="surface1">
<path style=" stroke:none;fill-rule:nonzero;fill:rgb(95.689392%,94.119263%,94.119263%);fill-opacity:1;" d="M 60.164062 94.234375 L 239.214844 94.234375 L 239.214844 216.019531 L 60.164062 216.019531 Z M 60.164062 94.234375 "/>
<g clip-path="url(#clip1)" clip-rule="nonzero">
<path style=" stroke:none;fill-rule:nonzero;fill:rgb(0%,0%,0%);fill-opacity:1;" d="M 60.292969 88.882812 C 58.527344 89.347656 57.1875 90.472656 56.242188 92.261719 L 55.757812 93.191406 L 55.757812 214.835938 L 56.132812 215.335938 C 56.328125 215.605469 56.777344 215.980469 57.117188 216.140625 C 57.6875 216.425781 57.222656 216.445312 46.957031 216.464844 C 36.25 216.464844 36.210938 216.464844 35.835938 216.839844 C 35.5 217.179688 35.460938 217.339844 35.585938 218.234375 C 35.640625 218.789062 35.765625 220.523438 35.835938 222.09375 C 35.925781 224.347656 36.035156 225.082031 36.285156 225.582031 C 36.730469 226.457031 37.425781 227.15625 38.265625 227.601562 L 38.980469 227.996094 L 260.503906 227.996094 L 261.214844 227.601562 C 262.054688 227.15625 262.75 226.457031 263.199219 225.582031 C 263.449219 225.082031 263.554688 224.347656 263.644531 222.09375 C 263.714844 220.523438 263.839844 218.789062 263.894531 218.234375 C 264.019531 217.339844 263.984375 217.179688 263.644531 216.839844 C 263.269531 216.464844 263.234375 216.464844 252.523438 216.464844 C 242.257812 216.445312 241.796875 216.425781 242.367188 216.140625 C 242.707031 215.980469 243.152344 215.605469 243.347656 215.335938 L 243.722656 214.835938 L 243.722656 93.191406 L 243.117188 92.0625 C 242.382812 90.722656 241.4375 89.828125 240.082031 89.1875 L 239.082031 88.722656 L 150.097656 88.683594 C 79.964844 88.667969 60.933594 88.703125 60.292969 88.882812 Z M 118.644531 90.597656 C 119.464844 91.367188 119.289062 92.691406 118.289062 93.207031 C 117.199219 93.78125 116.003906 93.011719 116.003906 91.742188 C 116.003906 91.132812 116.09375 90.902344 116.46875 90.617188 C 117.09375 90.132812 118.128906 90.117188 118.644531 90.597656 Z M 237.566406 152.546875 L 237.566406 210.207031 L 61.917969 210.207031 L 61.917969 94.890625 L 237.566406 94.890625 Z M 178.300781 216.640625 C 178.300781 217.019531 177.765625 217.875 177.300781 218.234375 L 176.820312 218.609375 L 122.660156 218.609375 L 122.179688 218.234375 C 121.714844 217.875 121.179688 217.019531 121.179688 216.640625 C 121.179688 216.515625 129.925781 216.464844 149.742188 216.464844 C 169.554688 216.464844 178.300781 216.515625 178.300781 216.640625 Z M 238.191406 220.109375 C 239.847656 220.808594 239.992188 223.453125 238.402344 224.257812 C 237.617188 224.6875 236.421875 224.652344 235.816406 224.222656 C 234.296875 223.097656 234.511719 220.863281 236.207031 220.109375 C 236.921875 219.808594 237.441406 219.808594 238.191406 220.109375 Z M 245.847656 220.109375 C 246.632812 220.433594 247.222656 221.289062 247.238281 222.148438 C 247.257812 224.027344 245.492188 225.132812 243.8125 224.292969 C 242.402344 223.578125 242.007812 222.042969 242.957031 220.84375 C 243.652344 219.949219 244.777344 219.664062 245.847656 220.109375 Z M 253.898438 220.289062 C 254.558594 220.71875 254.898438 221.363281 254.914062 222.167969 C 254.933594 223.203125 254.398438 223.992188 253.398438 224.402344 C 252.558594 224.742188 252.558594 224.742188 251.738281 224.402344 C 250.648438 223.953125 250.148438 223.273438 250.148438 222.273438 C 250.148438 220.414062 252.328125 219.269531 253.898438 220.289062 Z M 59.078125 221.648438 C 59.542969 221.898438 59.507812 222.453125 59.023438 222.792969 C 58.417969 223.222656 45.421875 223.222656 44.816406 222.792969 C 44.351562 222.46875 44.316406 222.238281 44.726562 221.792969 C 44.996094 221.488281 45.460938 221.46875 51.867188 221.46875 C 56.257812 221.46875 58.847656 221.539062 59.078125 221.648438 Z M 59.078125 221.648438 "/>
</g>
</g>
</svg>
