<?xml version="1.0" encoding="UTF-8"?>
<svg xmlns="http://www.w3.org/2000/svg" xmlns:xlink="http://www.w3.org/1999/xlink" width="300pt" height="299.999988pt" viewBox="0 0 300 299.999988" version="1.2">
<defs>
<clipPath id="clip1">
  <path d="M 35.1875 86.453125 L 263.679688 86.453125 L 263.679688 225.90625 L 35.1875 225.90625 Z M 35.1875 86.453125 "/>
</clipPath>
</defs>
<g id="surface1">
<path style=" stroke:none;fill-rule:nonzero;fill:rgb(95.689392%,94.119263%,94.119263%);fill-opacity:1;" d="M 60.167969 86.453125 L 239.511719 86.453125 L 239.511719 216.035156 L 60.167969 216.035156 Z M 60.167969 86.453125 "/>
<g clip-path="url(#clip1)" clip-rule="nonzero">
<path style=" stroke:none;fill-rule:nonzero;fill:rgb(0%,0%,0%);fill-opacity:1;" d="M 59.988281 86.703125 C 58.21875 87.167969 56.882812 88.296875 55.933594 90.082031 L 55.453125 91.011719 L 55.453125 212.660156 L 55.828125 213.160156 C 56.023438 213.425781 56.46875 213.804688 56.808594 213.964844 C 57.378906 214.25 56.917969 214.269531 46.652344 214.285156 C 35.941406 214.285156 35.90625 214.285156 35.53125 214.660156 C 35.191406 215 35.15625 215.160156 35.28125 216.054688 C 35.335938 216.609375 35.460938 218.34375 35.53125 219.917969 C 35.621094 222.171875 35.726562 222.902344 35.976562 223.402344 C 36.425781 224.28125 37.121094 224.976562 37.960938 225.425781 L 38.671875 225.816406 L 260.195312 225.816406 L 260.910156 225.425781 C 261.75 224.976562 262.445312 224.28125 262.890625 223.402344 C 263.140625 222.902344 263.25 222.171875 263.339844 219.917969 C 263.410156 218.34375 263.535156 216.609375 263.589844 216.054688 C 263.714844 215.160156 263.675781 215 263.339844 214.660156 C 262.964844 214.285156 262.929688 214.285156 252.21875 214.285156 C 241.953125 214.269531 241.488281 214.25 242.0625 213.964844 C 242.398438 213.804688 242.847656 213.425781 243.042969 213.160156 L 243.417969 212.660156 L 243.417969 91.011719 L 242.808594 89.886719 C 242.078125 88.546875 241.132812 87.652344 239.777344 87.007812 L 238.777344 86.542969 L 149.792969 86.507812 C 79.65625 86.488281 60.628906 86.523438 59.988281 86.703125 Z M 118.339844 88.421875 C 119.160156 89.1875 118.984375 90.511719 117.984375 91.03125 C 116.894531 91.601562 115.699219 90.835938 115.699219 89.566406 C 115.699219 88.957031 115.789062 88.722656 116.160156 88.4375 C 116.785156 87.957031 117.820312 87.9375 118.339844 88.421875 Z M 237.257812 150.371094 L 237.257812 208.027344 L 61.613281 208.027344 L 61.613281 92.710938 L 237.257812 92.710938 Z M 177.996094 214.464844 C 177.996094 214.839844 177.460938 215.699219 176.996094 216.054688 L 176.515625 216.429688 L 122.355469 216.429688 L 121.875 216.054688 C 121.410156 215.699219 120.875 214.839844 120.875 214.464844 C 120.875 214.339844 129.621094 214.285156 149.433594 214.285156 C 169.25 214.285156 177.996094 214.339844 177.996094 214.464844 Z M 237.882812 217.933594 C 239.542969 218.628906 239.6875 221.277344 238.097656 222.082031 C 237.3125 222.511719 236.117188 222.472656 235.507812 222.046875 C 233.992188 220.917969 234.207031 218.683594 235.902344 217.933594 C 236.617188 217.628906 237.132812 217.628906 237.882812 217.933594 Z M 245.542969 217.933594 C 246.328125 218.253906 246.917969 219.113281 246.933594 219.972656 C 246.953125 221.847656 245.183594 222.957031 243.507812 222.117188 C 242.097656 221.402344 241.703125 219.863281 242.648438 218.667969 C 243.347656 217.773438 244.46875 217.484375 245.542969 217.933594 Z M 253.59375 218.113281 C 254.253906 218.539062 254.589844 219.183594 254.609375 219.988281 C 254.628906 221.027344 254.09375 221.8125 253.09375 222.222656 C 252.253906 222.5625 252.253906 222.5625 251.433594 222.222656 C 250.34375 221.777344 249.84375 221.097656 249.84375 220.097656 C 249.84375 218.238281 252.019531 217.09375 253.59375 218.113281 Z M 58.773438 219.46875 C 59.238281 219.722656 59.203125 220.273438 58.71875 220.613281 C 58.113281 221.042969 45.117188 221.042969 44.511719 220.613281 C 44.046875 220.292969 44.011719 220.0625 44.421875 219.613281 C 44.6875 219.308594 45.152344 219.292969 51.5625 219.292969 C 55.953125 219.292969 58.542969 219.363281 58.773438 219.46875 Z M 58.773438 219.46875 "/>
</g>
</g>
</svg>
