<?xml version="1.0" encoding="UTF-8"?>
<svg xmlns="http://www.w3.org/2000/svg" xmlns:xlink="http://www.w3.org/1999/xlink" width="300pt" height="299.999988pt" viewBox="0 0 300 299.999988" version="1.2">
<defs>
<clipPath id="clip1">
  <path d="M 56.046875 95.292969 L 243.652344 95.292969 L 243.652344 209.792969 L 56.046875 209.792969 Z M 56.046875 95.292969 "/>
</clipPath>
</defs>
<g id="surface1">
<path style=" stroke:none;fill-rule:nonzero;fill:rgb(95.689392%,94.119263%,94.119263%);fill-opacity:1;" d="M 76.558594 95.292969 L 223.808594 95.292969 L 223.808594 201.6875 L 76.558594 201.6875 Z M 76.558594 95.292969 "/>
<g clip-path="url(#clip1)" clip-rule="nonzero">
<path style=" stroke:none;fill-rule:nonzero;fill:rgb(0%,0%,0%);fill-opacity:1;" d="M 76.410156 95.5 C 74.957031 95.882812 73.859375 96.808594 73.082031 98.273438 L 72.6875 99.035156 L 72.6875 198.917969 L 72.992188 199.328125 C 73.152344 199.546875 73.519531 199.855469 73.796875 199.988281 C 74.265625 200.222656 73.886719 200.238281 65.460938 200.25 C 56.664062 200.25 56.636719 200.25 56.328125 200.558594 C 56.050781 200.839844 56.019531 200.96875 56.125 201.703125 C 56.167969 202.160156 56.269531 203.582031 56.328125 204.875 C 56.402344 206.726562 56.488281 207.328125 56.695312 207.738281 C 57.0625 208.457031 57.632812 209.03125 58.324219 209.398438 L 58.90625 209.71875 L 240.789062 209.71875 L 241.378906 209.398438 C 242.066406 209.03125 242.636719 208.457031 243.003906 207.738281 C 243.207031 207.328125 243.296875 206.726562 243.371094 204.875 C 243.429688 203.582031 243.53125 202.160156 243.578125 201.703125 C 243.679688 200.96875 243.648438 200.839844 243.371094 200.558594 C 243.0625 200.25 243.035156 200.25 234.242188 200.25 C 225.8125 200.238281 225.429688 200.222656 225.902344 199.988281 C 226.179688 199.855469 226.546875 199.546875 226.707031 199.328125 L 227.015625 198.917969 L 227.015625 99.035156 L 226.515625 98.113281 C 225.914062 97.011719 225.140625 96.277344 224.027344 95.75 L 223.207031 95.367188 L 150.144531 95.339844 C 92.558594 95.324219 76.933594 95.351562 76.410156 95.5 Z M 124.320312 96.910156 C 124.992188 97.539062 124.847656 98.625 124.027344 99.054688 C 123.132812 99.519531 122.152344 98.890625 122.152344 97.851562 C 122.152344 97.351562 122.226562 97.15625 122.53125 96.921875 C 123.042969 96.527344 123.894531 96.511719 124.320312 96.910156 Z M 221.957031 147.773438 L 221.957031 195.113281 L 77.742188 195.113281 L 77.742188 100.433594 L 221.957031 100.433594 Z M 173.300781 200.398438 C 173.300781 200.707031 172.859375 201.414062 172.480469 201.703125 L 172.085938 202.011719 L 127.617188 202.011719 L 127.222656 201.703125 C 126.839844 201.414062 126.402344 200.707031 126.402344 200.398438 C 126.402344 200.296875 133.582031 200.25 149.847656 200.25 C 166.121094 200.25 173.300781 200.296875 173.300781 200.398438 Z M 222.46875 203.246094 C 223.832031 203.816406 223.953125 205.992188 222.648438 206.652344 C 222.003906 207.003906 221.019531 206.972656 220.519531 206.625 C 219.277344 205.695312 219.453125 203.863281 220.84375 203.246094 C 221.429688 202.996094 221.855469 202.996094 222.46875 203.246094 Z M 228.761719 203.246094 C 229.40625 203.511719 229.890625 204.214844 229.902344 204.921875 C 229.917969 206.460938 228.464844 207.371094 227.089844 206.683594 C 225.929688 206.09375 225.605469 204.832031 226.382812 203.851562 C 226.957031 203.117188 227.878906 202.878906 228.761719 203.246094 Z M 235.371094 203.394531 C 235.914062 203.742188 236.1875 204.273438 236.203125 204.933594 C 236.21875 205.785156 235.78125 206.429688 234.960938 206.769531 C 234.269531 207.046875 234.269531 207.046875 233.597656 206.769531 C 232.703125 206.402344 232.292969 205.84375 232.292969 205.023438 C 232.292969 203.496094 234.078125 202.558594 235.371094 203.394531 Z M 75.410156 204.507812 C 75.792969 204.714844 75.765625 205.167969 75.367188 205.445312 C 74.871094 205.800781 64.199219 205.800781 63.703125 205.445312 C 63.320312 205.183594 63.292969 204.996094 63.628906 204.625 C 63.847656 204.375 64.226562 204.363281 69.492188 204.363281 C 73.097656 204.363281 75.222656 204.421875 75.410156 204.507812 Z M 75.410156 204.507812 "/>
</g>
</g>
</svg>
