<?xml version="1.0" encoding="UTF-8"?>
<svg xmlns="http://www.w3.org/2000/svg" xmlns:xlink="http://www.w3.org/1999/xlink" width="75pt" height="74.999997pt" viewBox="0 0 75 74.999997" version="1.2">
<defs>
<clipPath id="clip1">
  <path d="M 12.1875 12.1875 L 63.1875 12.1875 L 63.1875 63.1875 L 12.1875 63.1875 Z M 12.1875 12.1875 "/>
</clipPath>
</defs>
<g id="surface1">
<g clip-path="url(#clip1)" clip-rule="nonzero">
<path style=" stroke:none;fill-rule:nonzero;fill:rgb(0%,0%,0%);fill-opacity:1;" d="M 63.566406 37.875 C 63.566406 52.070312 52.070312 63.566406 37.875 63.566406 C 23.683594 63.566406 12.1875 52.070312 12.1875 37.875 C 12.1875 23.683594 23.683594 12.1875 37.875 12.1875 C 52.070312 12.1875 63.566406 23.683594 63.566406 37.875 Z M 14.164062 37.875 C 14.164062 50.96875 24.785156 61.589844 37.875 61.589844 C 50.96875 61.589844 61.589844 50.96875 61.589844 37.875 C 61.589844 24.785156 50.96875 14.164062 37.875 14.164062 C 24.785156 14.164062 14.164062 24.785156 14.164062 37.875 Z M 37.875 27.996094 C 36.785156 27.996094 35.898438 27.109375 35.898438 26.019531 C 35.898438 24.929688 36.785156 24.042969 37.875 24.042969 C 38.96875 24.042969 39.851562 24.929688 39.851562 26.019531 C 39.851562 27.109375 38.96875 27.996094 37.875 27.996094 Z M 38.863281 31.949219 C 39.410156 31.949219 39.851562 32.390625 39.851562 32.9375 L 39.851562 47.757812 L 40.839844 47.757812 C 41.386719 47.757812 41.828125 48.199219 41.828125 48.746094 C 41.828125 49.289062 41.386719 49.734375 40.839844 49.734375 L 34.914062 49.734375 C 34.367188 49.734375 33.925781 49.289062 33.925781 48.746094 C 33.925781 48.199219 34.367188 47.757812 34.914062 47.757812 L 35.898438 47.757812 L 35.898438 33.925781 L 34.914062 33.925781 C 34.367188 33.925781 33.925781 33.480469 33.925781 32.9375 C 33.925781 32.390625 34.367188 31.949219 34.914062 31.949219 Z M 38.863281 31.949219 "/>
</g>
</g>
</svg>
