<?xml version="1.0" encoding="UTF-8"?>
<svg xmlns="http://www.w3.org/2000/svg" xmlns:xlink="http://www.w3.org/1999/xlink" width="187.5pt" height="524.999985pt" viewBox="0 0 187.5 524.999985" version="1.2">
<defs>
<clipPath id="clip1">
  <path d="M 4.742188 129.601562 L 182.234375 129.601562 L 182.234375 396.414062 L 4.742188 396.414062 Z M 4.742188 129.601562 "/>
</clipPath>
</defs>
<g id="surface1">
<g clip-path="url(#clip1)" clip-rule="nonzero">
<path style=" stroke:none;fill-rule:nonzero;fill:rgb(0%,0%,0%);fill-opacity:1;" d="M 148.953125 396.328125 L 38.019531 396.328125 C 36.929688 396.328125 35.84375 396.273438 34.757812 396.167969 C 33.675781 396.058594 32.597656 395.898438 31.527344 395.6875 C 30.460938 395.472656 29.402344 395.207031 28.359375 394.890625 C 27.316406 394.574219 26.292969 394.207031 25.285156 393.789062 C 24.277344 393.371094 23.292969 392.90625 22.332031 392.390625 C 21.371094 391.875 20.4375 391.316406 19.53125 390.710938 C 18.625 390.101562 17.75 389.453125 16.910156 388.761719 C 16.066406 388.070312 15.257812 387.335938 14.488281 386.566406 C 13.71875 385.792969 12.988281 384.984375 12.296875 384.140625 C 11.605469 383.296875 10.957031 382.421875 10.351562 381.515625 C 9.746094 380.605469 9.183594 379.671875 8.671875 378.707031 C 8.15625 377.746094 7.691406 376.761719 7.273438 375.75 C 6.859375 374.742188 6.492188 373.714844 6.175781 372.671875 C 5.859375 371.628906 5.59375 370.570312 5.382812 369.5 C 5.167969 368.429688 5.007812 367.351562 4.902344 366.265625 C 4.792969 365.175781 4.742188 364.089844 4.742188 362.996094 L 4.742188 163.019531 C 4.742188 161.925781 4.792969 160.839844 4.902344 159.753906 C 5.007812 158.664062 5.167969 157.585938 5.382812 156.515625 C 5.59375 155.445312 5.859375 154.390625 6.175781 153.34375 C 6.492188 152.300781 6.859375 151.273438 7.273438 150.265625 C 7.691406 149.257812 8.15625 148.269531 8.671875 147.308594 C 9.183594 146.34375 9.746094 145.410156 10.351562 144.503906 C 10.957031 143.59375 11.605469 142.71875 12.296875 141.875 C 12.988281 141.03125 13.71875 140.222656 14.488281 139.453125 C 15.257812 138.679688 16.066406 137.949219 16.910156 137.253906 C 17.75 136.5625 18.625 135.914062 19.53125 135.304688 C 20.4375 134.699219 21.371094 134.140625 22.332031 133.625 C 23.292969 133.109375 24.277344 132.644531 25.285156 132.226562 C 26.292969 131.808594 27.316406 131.441406 28.359375 131.125 C 29.402344 130.808594 30.460938 130.542969 31.527344 130.328125 C 32.597656 130.117188 33.675781 129.957031 34.757812 129.851562 C 35.84375 129.742188 36.929688 129.691406 38.019531 129.691406 L 148.953125 129.691406 C 150.042969 129.691406 151.132812 129.742188 152.214844 129.851562 C 153.300781 129.957031 154.378906 130.117188 155.445312 130.328125 C 156.515625 130.542969 157.570312 130.808594 158.613281 131.125 C 159.65625 131.441406 160.683594 131.808594 161.691406 132.226562 C 162.695312 132.644531 163.679688 133.109375 164.640625 133.625 C 165.601562 134.140625 166.539062 134.699219 167.445312 135.304688 C 168.351562 135.914062 169.222656 136.5625 170.066406 137.253906 C 170.910156 137.949219 171.714844 138.679688 172.488281 139.453125 C 173.257812 140.222656 173.988281 141.03125 174.679688 141.875 C 175.371094 142.71875 176.019531 143.59375 176.625 144.503906 C 177.230469 145.410156 177.789062 146.34375 178.304688 147.308594 C 178.816406 148.269531 179.285156 149.257812 179.699219 150.265625 C 180.117188 151.273438 180.484375 152.300781 180.800781 153.34375 C 181.117188 154.390625 181.382812 155.445312 181.59375 156.515625 C 181.808594 157.585938 181.96875 158.664062 182.074219 159.753906 C 182.179688 160.839844 182.234375 161.925781 182.234375 163.019531 L 182.234375 362.996094 C 182.234375 364.089844 182.179688 365.175781 182.074219 366.265625 C 181.96875 367.351562 181.808594 368.429688 181.59375 369.5 C 181.382812 370.570312 181.117188 371.628906 180.800781 372.671875 C 180.484375 373.714844 180.117188 374.742188 179.699219 375.75 C 179.285156 376.761719 178.816406 377.746094 178.304688 378.707031 C 177.789062 379.671875 177.230469 380.605469 176.625 381.515625 C 176.019531 382.421875 175.371094 383.296875 174.679688 384.140625 C 173.988281 384.984375 173.257812 385.792969 172.488281 386.566406 C 171.714844 387.335938 170.910156 388.070312 170.066406 388.761719 C 169.222656 389.453125 168.351562 390.101562 167.445312 390.710938 C 166.539062 391.316406 165.601562 391.875 164.640625 392.390625 C 163.679688 392.90625 162.695312 393.371094 161.691406 393.789062 C 160.683594 394.207031 159.65625 394.574219 158.613281 394.890625 C 157.570312 395.207031 156.515625 395.472656 155.445312 395.6875 C 154.378906 395.898438 153.300781 396.058594 152.214844 396.167969 C 151.132812 396.273438 150.042969 396.328125 148.953125 396.328125 Z M 38.019531 151.910156 C 37.292969 151.910156 36.570312 151.980469 35.855469 152.121094 C 35.144531 152.265625 34.449219 152.476562 33.777344 152.753906 C 33.101562 153.035156 32.464844 153.375 31.859375 153.78125 C 31.253906 154.1875 30.691406 154.648438 30.175781 155.164062 C 29.664062 155.679688 29.203125 156.242188 28.796875 156.847656 C 28.394531 157.453125 28.050781 158.09375 27.773438 158.769531 C 27.492188 159.441406 27.285156 160.136719 27.140625 160.851562 C 27 161.566406 26.929688 162.289062 26.929688 163.019531 L 26.929688 362.996094 C 26.929688 363.726562 27 364.449219 27.140625 365.164062 C 27.285156 365.878906 27.492188 366.574219 27.773438 367.25 C 28.050781 367.921875 28.394531 368.5625 28.796875 369.167969 C 29.203125 369.777344 29.660156 370.335938 30.175781 370.851562 C 30.691406 371.367188 31.253906 371.828125 31.859375 372.234375 C 32.464844 372.640625 33.101562 372.980469 33.777344 373.261719 C 34.449219 373.539062 35.144531 373.75 35.855469 373.894531 C 36.570312 374.035156 37.292969 374.105469 38.019531 374.105469 L 148.953125 374.105469 C 149.683594 374.105469 150.402344 374.035156 151.117188 373.894531 C 151.832031 373.75 152.527344 373.539062 153.199219 373.261719 C 153.871094 372.980469 154.511719 372.640625 155.117188 372.234375 C 155.722656 371.828125 156.285156 371.367188 156.796875 370.851562 C 157.3125 370.335938 157.773438 369.777344 158.179688 369.167969 C 158.582031 368.5625 158.925781 367.921875 159.203125 367.25 C 159.480469 366.574219 159.691406 365.878906 159.835938 365.164062 C 159.976562 364.449219 160.046875 363.726562 160.046875 362.996094 L 160.046875 163.019531 C 160.046875 162.289062 159.976562 161.566406 159.835938 160.851562 C 159.691406 160.136719 159.480469 159.441406 159.203125 158.769531 C 158.925781 158.09375 158.582031 157.453125 158.179688 156.847656 C 157.773438 156.242188 157.3125 155.679688 156.796875 155.164062 C 156.285156 154.648438 155.722656 154.1875 155.117188 153.78125 C 154.511719 153.375 153.871094 153.035156 153.199219 152.753906 C 152.527344 152.476562 151.832031 152.265625 151.117188 152.121094 C 150.402344 151.980469 149.683594 151.910156 148.953125 151.910156 Z M 38.019531 151.910156 "/>
</g>
<path style=" stroke:none;fill-rule:nonzero;fill:rgb(0%,0%,0%);fill-opacity:1;" d="M 115.675781 351.886719 L 71.300781 351.886719 C 70.574219 351.886719 69.851562 351.816406 69.136719 351.671875 C 68.421875 351.53125 67.730469 351.320312 67.054688 351.042969 C 66.382812 350.761719 65.742188 350.421875 65.136719 350.015625 C 64.53125 349.609375 63.972656 349.148438 63.457031 348.632812 C 62.941406 348.117188 62.480469 347.554688 62.078125 346.949219 C 61.671875 346.34375 61.332031 345.703125 61.050781 345.027344 C 60.773438 344.355469 60.5625 343.660156 60.421875 342.945312 C 60.277344 342.230469 60.207031 341.507812 60.207031 340.777344 C 60.207031 340.046875 60.277344 339.324219 60.421875 338.609375 C 60.5625 337.894531 60.773438 337.199219 61.050781 336.527344 C 61.332031 335.851562 61.671875 335.210938 62.078125 334.605469 C 62.480469 334 62.941406 333.4375 63.457031 332.921875 C 63.972656 332.40625 64.53125 331.945312 65.136719 331.539062 C 65.742188 331.132812 66.382812 330.792969 67.054688 330.511719 C 67.730469 330.234375 68.421875 330.023438 69.136719 329.878906 C 69.851562 329.738281 70.574219 329.667969 71.300781 329.667969 L 115.675781 329.667969 C 116.402344 329.667969 117.125 329.738281 117.839844 329.882812 C 118.554688 330.023438 119.246094 330.234375 119.917969 330.511719 C 120.59375 330.792969 121.230469 331.132812 121.835938 331.539062 C 122.441406 331.945312 123.003906 332.40625 123.519531 332.921875 C 124.035156 333.4375 124.492188 334 124.898438 334.605469 C 125.300781 335.210938 125.644531 335.851562 125.921875 336.527344 C 126.203125 337.199219 126.414062 337.894531 126.554688 338.609375 C 126.695312 339.324219 126.765625 340.046875 126.769531 340.777344 C 126.765625 341.507812 126.695312 342.230469 126.554688 342.945312 C 126.414062 343.660156 126.203125 344.355469 125.921875 345.027344 C 125.644531 345.703125 125.300781 346.34375 124.898438 346.949219 C 124.492188 347.554688 124.035156 348.117188 123.519531 348.632812 C 123.003906 349.148438 122.441406 349.609375 121.835938 350.015625 C 121.230469 350.421875 120.59375 350.761719 119.917969 351.042969 C 119.246094 351.320312 118.554688 351.53125 117.839844 351.671875 C 117.125 351.816406 116.402344 351.886719 115.675781 351.886719 Z M 115.675781 351.886719 "/>
</g>
</svg>
