<?xml version="1.0" encoding="UTF-8"?>
<svg xmlns="http://www.w3.org/2000/svg" xmlns:xlink="http://www.w3.org/1999/xlink" width="224.87999pt" height="374.999991pt" viewBox="0 0 224.87999 374.999991" version="1.2">
<defs>
<clipPath id="clip1">
  <path d="M 0 3.171875 L 224.761719 3.171875 L 224.761719 371.976562 L 0 371.976562 Z M 0 3.171875 "/>
</clipPath>
</defs>
<g id="surface1">
<path style=" stroke:none;fill-rule:nonzero;fill:rgb(100%,100%,100%);fill-opacity:1;" d="M 8.203125 11.015625 L 214.652344 11.015625 L 214.652344 363.738281 L 8.203125 363.738281 Z M 8.203125 11.015625 "/>
<path style=" stroke:none;fill-rule:nonzero;fill:rgb(100%,100%,100%);fill-opacity:1;" d="M 27.035156 31.414062 L 197.449219 31.414062 L 197.449219 346.261719 L 27.035156 346.261719 Z M 27.035156 31.414062 "/>
<g clip-path="url(#clip1)" clip-rule="nonzero">
<path style=" stroke:none;fill-rule:nonzero;fill:rgb(0%,0%,0%);fill-opacity:1;" d="M 224.65625 358.597656 C 224.65625 365.980469 218.667969 371.972656 211.285156 371.972656 L 13.503906 371.972656 C 6.125 371.972656 0.136719 365.980469 0.136719 358.597656 L 0.136719 16.507812 C 0.136719 9.117188 6.125 3.128906 13.503906 3.128906 L 211.285156 3.128906 C 218.667969 3.128906 224.65625 9.117188 224.65625 16.507812 L 224.65625 358.597656 "/>
</g>
<path style=" stroke:none;fill-rule:nonzero;fill:rgb(100%,100%,100%);fill-opacity:1;" d="M 213.144531 320.203125 L 11.648438 320.203125 L 11.648438 35.789062 L 213.144531 35.789062 L 213.144531 320.203125 "/>
<path style=" stroke:none;fill-rule:nonzero;fill:rgb(100%,100%,100%);fill-opacity:1;" d="M 129.789062 344.363281 C 129.789062 353.832031 122.121094 361.507812 112.652344 361.507812 C 103.1875 361.507812 95.519531 353.832031 95.519531 344.363281 C 95.519531 334.898438 103.1875 327.222656 112.652344 327.222656 C 122.121094 327.222656 129.789062 334.898438 129.789062 344.363281 "/>
<path style=" stroke:none;fill-rule:nonzero;fill:rgb(100%,100%,100%);fill-opacity:1;" d="M 149.835938 20.78125 C 149.835938 23.707031 147.464844 26.078125 144.542969 26.078125 L 89.136719 26.078125 C 86.207031 26.078125 83.84375 23.707031 83.84375 20.78125 C 83.84375 17.855469 86.207031 15.484375 89.136719 15.484375 L 144.542969 15.484375 C 147.464844 15.484375 149.835938 17.855469 149.835938 20.78125 "/>
</g>
</svg>
