<?xml version="1.0" encoding="UTF-8"?>
<svg xmlns="http://www.w3.org/2000/svg" xmlns:xlink="http://www.w3.org/1999/xlink" width="224.87999pt" height="374.999991pt" viewBox="0 0 224.87999 374.999991" version="1.2">
<defs>
<clipPath id="clip1">
  <path d="M 6 5.972656 L 219 5.972656 L 219 368.546875 L 6 368.546875 Z M 6 5.972656 "/>
</clipPath>
</defs>
<g id="surface1">
<path style=" stroke:none;fill-rule:nonzero;fill:rgb(100%,100%,100%);fill-opacity:1;" d="M 27.035156 31.414062 L 197.449219 31.414062 L 197.449219 346.261719 L 27.035156 346.261719 Z M 27.035156 31.414062 "/>
<g clip-path="url(#clip1)" clip-rule="nonzero">
<path style=" stroke:none;fill-rule:nonzero;fill:rgb(0%,0%,0%);fill-opacity:1;" d="M 173.265625 5.972656 L 51.855469 5.972656 C 26.804688 5.972656 6.324219 26.363281 6.324219 51.296875 L 6.324219 323.226562 C 6.324219 348.160156 26.804688 368.546875 51.855469 368.546875 L 173.265625 368.546875 C 198.316406 368.546875 218.792969 348.160156 218.792969 323.226562 L 218.792969 51.296875 C 218.792969 26.363281 198.316406 5.972656 173.265625 5.972656 Z M 188.445312 323.226562 C 188.445312 331.414062 181.492188 338.335938 173.265625 338.335938 L 51.855469 338.335938 C 43.628906 338.335938 36.675781 331.414062 36.675781 323.226562 L 36.675781 51.296875 C 36.675781 43.105469 43.628906 36.191406 51.855469 36.191406 L 67.03125 36.191406 L 67.03125 43.746094 C 67.03125 52.054688 73.863281 58.851562 82.207031 58.851562 L 142.914062 58.851562 C 151.253906 58.851562 158.089844 52.054688 158.089844 43.746094 L 158.089844 36.191406 L 173.265625 36.191406 C 181.492188 36.191406 188.445312 43.109375 188.445312 51.296875 Z M 188.445312 323.226562 "/>
</g>
</g>
</svg>
